<?xml version="1.0" encoding="UTF-8" standalone="no"?> <svg width="512" height="512" viewBox="0 0 512 512" fill="none" xmlns="http://www.w3.org/2000/svg">
<path d="M456 152C456 141.391 451.786 131.217 444.284 123.716C436.783 116.214 426.609 112 416 112C405.391 112 395.217 116.214 387.716 123.716C380.214 131.217 376 141.391 376 152C367.513 152 359.374 155.371 353.373 161.373C347.371 167.374 344 175.513 344 184C344 192.487 347.371 200.626 353.373 206.627C359.374 212.629 367.513 216 376 216H456C464.487 216 472.626 212.629 478.627 206.627C484.629 200.626 488 192.487 488 184C488 175.513 484.629 167.374 478.627 161.373C472.626 155.371 464.487 152 456 152Z" fill="#486CBC"/>
<path d="M256 128H248V104C248 97.6348 245.471 91.5303 240.971 87.0294C236.47 82.5286 230.365 80 224 80L216.485 87.5146C213.795 90.2048 210.601 92.3388 207.087 93.7947C203.572 95.2507 199.804 96 196 96C192.196 96 188.428 95.2507 184.913 93.7947C181.399 92.3388 178.205 90.2048 175.515 87.5146L168 80H128L104 104V120C104 130.609 108.214 140.783 115.716 148.284C123.217 155.786 133.391 160 144 160H176L188.686 172.686C191.687 175.687 195.757 177.372 200 177.372C204.243 177.372 208.313 175.687 211.314 172.686L216 168L256 138V128Z" fill="#FFE19E"/>
<path d="M224 24H217.137C206.631 24 196.228 26.0692 186.522 30.0896C176.816 34.11 167.997 40.0027 160.569 47.4314L128 80H168L175.515 87.5146C178.205 90.2048 181.399 92.3388 184.913 93.7947C188.428 95.2507 192.196 96 196 96C199.804 96 203.572 95.2507 207.087 93.7947C210.601 92.3388 213.795 90.2048 216.485 87.5146L224 80C230.365 80 236.47 82.5286 240.971 87.0294C245.471 91.5303 248 97.6348 248 104V136C248 143.354 249.448 150.636 252.263 157.43C255.077 164.225 259.202 170.398 264.402 175.598C269.602 180.798 275.775 184.923 282.57 187.737C289.364 190.552 296.646 192 304 192H304V104C304 93.4942 301.931 83.0914 297.91 73.3853C293.89 63.6793 287.997 54.8601 280.569 47.4314C273.14 40.0027 264.321 34.11 254.615 30.0896C244.909 26.0692 234.506 24 224 24V24Z" fill="#E5B13B"/>
<path d="M392 416L329.137 290.273C323.987 279.974 316.072 271.313 306.277 265.26C296.483 259.206 285.196 256 273.682 256H273.681C265.539 256 257.477 257.604 249.955 260.72C242.433 263.835 235.598 268.402 229.84 274.16L152 352H24V376.421C24 406.014 35.7556 434.394 56.6806 455.319C77.6056 476.244 105.986 488 135.579 488H135.579C158.997 488 181.822 480.632 200.82 466.939C219.818 453.246 234.026 433.922 241.431 411.706L263.319 346.042L328 456L392 416Z" fill="#6E6E6E"/>
<path d="M286.112 120H273.889C267.022 120 260.438 122.728 255.583 127.583C250.728 132.438 248 139.022 248 145.888V145.889C248 149.908 248.936 153.872 250.733 157.466L253.765 163.53C255.22 166.44 255.753 169.726 255.293 172.948L249.962 210.263C249.418 214.075 247.516 217.564 244.607 220.087C241.697 222.611 237.975 224 234.123 224H224V272H248.649C259.746 272 270.5 268.155 279.081 261.12C287.662 254.085 293.541 244.295 295.717 233.414L303.58 194.101C303.859 192.707 304.322 191.355 304.958 190.083L309.267 181.466C311.064 177.872 312 173.908 312 169.889V145.888C312 139.022 309.272 132.438 304.417 127.583C299.562 122.728 292.978 120 286.112 120V120Z" fill="#FFE19E"/>
<path d="M152 352H152C147.582 352 144 355.582 144 360V376C144 380.418 147.582 384 152 384H152C156.418 384 160 380.418 160 376V360C160 355.582 156.418 352 152 352Z" fill="#575757"/>
<path d="M428 416H392L328 456L335.155 470.311C337.813 475.626 341.898 480.096 346.954 483.221C352.009 486.345 357.834 488 363.777 488H428C432.728 488 437.409 487.069 441.777 485.26C446.144 483.45 450.113 480.799 453.456 477.456C456.799 474.113 459.451 470.144 461.26 465.777C463.069 461.409 464 456.728 464 452C464 447.272 463.069 442.591 461.26 438.223C459.451 433.856 456.799 429.887 453.456 426.544C450.113 423.201 446.144 420.549 441.777 418.74C437.409 416.931 432.728 416 428 416V416Z" fill="#575757"/>
<path d="M64 96H48C48.0143 83.274 53.076 71.0733 62.0747 62.0747C71.0733 53.076 83.274 48.0143 96 48V64C87.516 64.0096 79.3823 67.3841 73.3832 73.3832C67.3841 79.3823 64.0096 87.516 64 96V96Z" fill="#AAE5CF"/>
<path d="M40 64H24C24.012 53.395 28.2302 43.2279 35.729 35.729C43.2279 28.2302 53.395 24.012 64 24V40C57.637 40.0072 51.5367 42.5381 47.0374 47.0374C42.5381 51.5367 40.0072 57.637 40 64V64Z" fill="#AAE5CF"/>
<path d="M439.526 183.365L439.526 183.365C438.416 181.899 437.848 180.095 437.917 178.258C437.987 176.421 438.691 174.665 439.909 173.288C443.693 169.07 446.273 163.912 447.377 158.354C447.747 156.555 448.729 154.938 450.155 153.78C451.582 152.622 453.365 151.993 455.203 152V152C456.396 152.005 457.573 152.275 458.648 152.791C459.723 153.307 460.671 154.056 461.42 154.983C462.17 155.911 462.704 156.994 462.983 158.154C463.262 159.314 463.28 160.521 463.034 161.688C461.373 169.912 457.556 177.546 451.974 183.809C451.188 184.706 450.212 185.417 449.118 185.89C448.023 186.363 446.836 186.586 445.645 186.544C444.453 186.501 443.285 186.194 442.227 185.644C441.169 185.094 440.246 184.316 439.526 183.365V183.365Z" fill="#5B7BC3"/>
<path d="M406.946 307.969L393.054 300.031L418.214 256H387.056L416.845 196.422L431.155 203.578L412.944 240H445.786L406.946 307.969Z" fill="#FFD168"/>
<path d="M248 320L248 320C244.192 322.24 242.92 327.143 245.161 330.951L253.048 344.361C255.289 348.169 260.192 349.44 264 347.2L264 347.2C267.808 344.96 269.079 340.057 266.839 336.249L258.951 322.839C256.711 319.031 251.808 317.76 248 320Z" fill="#575757"/>
<path d="M152.411 133.47L143.571 159.989C143.714 159.991 143.856 160 144 160H160.433L167.589 138.53L152.411 133.47Z" fill="#FFD168"/>
<path d="M214.4 123.2L201.6 132.8L223.68 162.24L236.48 152.64L214.4 123.2Z" fill="#FFD168"/>
<path d="M380.715 150.571L380.582 150.836C380.094 151.809 379.815 152.874 379.761 153.961C379.707 155.048 379.881 156.134 380.27 157.151C380.66 158.167 381.257 159.091 382.023 159.864C382.79 160.637 383.709 161.242 384.722 161.64C388.262 163.029 391.423 165.237 393.947 168.082C396.471 170.927 398.286 174.329 399.243 178.009C399.653 179.704 400.617 181.214 401.982 182.299C403.347 183.384 405.035 183.983 406.778 184H407.177C408.377 183.997 409.561 183.719 410.637 183.188C411.714 182.657 412.654 181.887 413.387 180.937C414.12 179.987 414.626 178.882 414.867 177.706C415.107 176.53 415.075 175.314 414.773 174.153C413.193 167.994 410.174 162.298 405.963 157.534C401.753 152.77 396.471 149.073 390.553 146.749C388.732 146.045 386.714 146.047 384.894 146.754C383.074 147.461 381.583 148.822 380.715 150.571V150.571Z" fill="#5B7BC3"/>
<path d="M144 160C133.391 160 123.217 155.786 115.716 148.284C108.214 140.783 104 130.609 104 120V104L59.1472 148.853C36.6428 171.357 24 201.88 24 233.706V352H152V286.544C154.079 287.498 156.34 287.995 158.627 288H224V216H177.285C174.464 216 171.694 215.254 169.254 213.839C166.815 212.423 164.793 210.387 163.393 207.938L152 188V160H144Z" fill="#31C292"/>
</svg>
